<svg xmlns="http://www.w3.org/2000/svg" xmlns:xlink="http://www.w3.org/1999/xlink" width="692" height="281.649" viewBox="0 0 692 281.649"><defs><style>.a{fill:url(#a);}.b{fill:#3acce1;}.c,.d{fill:#fff;}.c{font-size:15px;font-family:SegoeUI-Bold, Segoe UI;font-weight:700;}.d{font-size:9px;font-family:SegoeUI, Segoe UI;opacity:0.8;}.e{fill:url(#d);}.f{fill:#a5b4d3;}.g{fill:url(#h);}.h{fill:#8592ad;}.i{fill:url(#p);}.j{fill:url(#s);}.k{filter:url(#t);}.l{filter:url(#q);}.m{filter:url(#i);}.n{filter:url(#b);}</style><pattern id="a" preserveAspectRatio="xMidYMid slice" width="100%" height="100%" viewBox="0 0 1800 1200"><image width="1800" height="1200" xlink:href="/Users/Aurelien/Dropbox%20(Personal)/Kit%20shared/Cars%20%26%20Transport%20optimized/bady-qb-490183.jpg"/></pattern><filter id="b" x="164" y="0" width="200" height="281.649" filterUnits="userSpaceOnUse"><feOffset dy="2" input="SourceAlpha"/><feGaussianBlur stdDeviation="8" result="c"/><feFlood flood-opacity="0.18"/><feComposite operator="in" in2="c"/><feComposite in="SourceGraphic"/></filter><linearGradient id="d" x1="0.063" y1="1" x2="1" gradientUnits="objectBoundingBox"><stop offset="0" stop-color="#ffc726"/><stop offset="1" stop-color="#f99716"/></linearGradient><pattern id="h" preserveAspectRatio="xMidYMid slice" width="100%" height="100%" viewBox="0 0 1685 1123"><image width="1685" height="1123" xlink:href="/Users/Aurelien/Dropbox%20(Personal)/Kit%20shared/Cars%20%26%20Transport%20optimized/jonathan-forage-225346.jpg"/></pattern><filter id="i" x="328" y="61.649" width="200" height="220" filterUnits="userSpaceOnUse"><feOffset dy="2" input="SourceAlpha"/><feGaussianBlur stdDeviation="8" result="j"/><feFlood flood-opacity="0.18"/><feComposite operator="in" in2="j"/><feComposite in="SourceGraphic"/></filter><pattern id="p" preserveAspectRatio="xMidYMid slice" width="100%" height="100%" viewBox="0 0 1102 1562"><image width="1102" height="1562" xlink:href="/Users/Aurelien/Dropbox%20(Personal)/Kit%20shared/Cars%20%26%20Transport%20optimized/joseph-gonzalez-176749.jpg"/></pattern><filter id="q" x="492" y="61.649" width="200" height="220" filterUnits="userSpaceOnUse"><feOffset dy="2" input="SourceAlpha"/><feGaussianBlur stdDeviation="8" result="r"/><feFlood flood-opacity="0.18"/><feComposite operator="in" in2="r"/><feComposite in="SourceGraphic"/></filter><pattern id="s" preserveAspectRatio="xMidYMid slice" width="100%" height="100%" viewBox="0 0 750 500"><image width="750" height="500" xlink:href="/Users/Aurelien/Dropbox%20(Personal)/Kit%20shared/Cars%20%26%20Transport%20optimized/kyle-head-465761.jpg"/></pattern><filter id="t" x="0" y="61.649" width="200" height="220" filterUnits="userSpaceOnUse"><feOffset dy="2" input="SourceAlpha"/><feGaussianBlur stdDeviation="8" result="u"/><feFlood flood-opacity="0.18"/><feComposite operator="in" in2="u"/><feComposite in="SourceGraphic"/></filter></defs><g transform="translate(158 -516.351)"><g transform="translate(-150 -32.649)"><g class="n" transform="matrix(1, 0, 0, 1, -8, 549)"><rect class="a" width="152" height="233.649" rx="12" transform="translate(188 22)"/></g><g transform="translate(180 744.649)"><path class="b" d="M0,0H152a0,0,0,0,1,0,0V52a8,8,0,0,1-8,8H8a8,8,0,0,1-8-8V0A0,0,0,0,1,0,0Z"/><text class="c" transform="translate(15.4 20.289)"><tspan x="0" y="0">Fresh Sushi</tspan></text><text class="d" transform="translate(15.4 33.554)"><tspan x="0" y="0">by Bryce Fox</tspan></text><g transform="translate(15.4 37.761)"><path class="e" d="M9.508,3.3a.393.393,0,0,1-.149.257l-2.074,1.9.491,2.68a.674.674,0,0,1,.006.107c0,.139-.069.268-.234.268a.487.487,0,0,1-.229-.064L4.754,7.176,2.188,8.441a.506.506,0,0,1-.229.064.24.24,0,0,1-.24-.268.683.683,0,0,1,.011-.107l.491-2.68-2.08-1.9A.409.409,0,0,1,0,3.3c0-.161.177-.225.32-.247l2.868-.391L4.474.22A.35.35,0,0,1,4.754,0a.35.35,0,0,1,.28.22L6.32,2.658l2.868.391C9.325,3.071,9.508,3.135,9.508,3.3Z" transform="translate(0 0.005)"/><path class="e" d="M9.508,3.3a.393.393,0,0,1-.149.257l-2.074,1.9.491,2.68a.674.674,0,0,1,.006.107c0,.139-.069.268-.234.268a.487.487,0,0,1-.229-.064L4.754,7.176,2.188,8.441a.506.506,0,0,1-.229.064.24.24,0,0,1-.24-.268.683.683,0,0,1,.011-.107l.491-2.68-2.08-1.9A.409.409,0,0,1,0,3.3c0-.161.177-.225.32-.247l2.868-.391L4.474.22A.35.35,0,0,1,4.754,0a.35.35,0,0,1,.28.22L6.32,2.658l2.868.391C9.325,3.071,9.508,3.135,9.508,3.3Z" transform="translate(11.244 0.005)"/><path class="e" d="M9.508,3.3a.393.393,0,0,1-.149.257l-2.074,1.9.491,2.68a.674.674,0,0,1,.006.107c0,.139-.069.268-.234.268a.487.487,0,0,1-.229-.064L4.754,7.176,2.188,8.441a.506.506,0,0,1-.229.064.24.24,0,0,1-.24-.268.683.683,0,0,1,.011-.107l.491-2.68-2.08-1.9A.409.409,0,0,1,0,3.3c0-.161.177-.225.32-.247l2.868-.391L4.474.22A.35.35,0,0,1,4.754,0a.35.35,0,0,1,.28.22L6.32,2.658l2.868.391C9.325,3.071,9.508,3.135,9.508,3.3Z" transform="translate(22.487 0.005)"/><path class="e" d="M9.508,3.3a.393.393,0,0,1-.149.257l-2.074,1.9.491,2.68a.674.674,0,0,1,.006.107c0,.139-.069.268-.234.268a.487.487,0,0,1-.229-.064L4.754,7.176,2.188,8.441a.506.506,0,0,1-.229.064.24.24,0,0,1-.24-.268.683.683,0,0,1,.011-.107l.491-2.68-2.08-1.9A.409.409,0,0,1,0,3.3c0-.161.177-.225.32-.247l2.868-.391L4.474.22A.35.35,0,0,1,4.754,0a.35.35,0,0,1,.28.22L6.32,2.658l2.868.391C9.325,3.071,9.508,3.135,9.508,3.3Z" transform="translate(33.731 0.005)"/><path class="f" d="M9.508,3.3a.393.393,0,0,1-.149.257l-2.074,1.9.491,2.68a.674.674,0,0,1,.006.107c0,.139-.069.268-.234.268a.487.487,0,0,1-.229-.064L4.754,7.176,2.188,8.441a.506.506,0,0,1-.229.064.24.24,0,0,1-.24-.268.683.683,0,0,1,.011-.107l.491-2.68-2.08-1.9A.409.409,0,0,1,0,3.3c0-.161.177-.225.32-.247l2.868-.391L4.474.22A.35.35,0,0,1,4.754,0a.35.35,0,0,1,.28.22L6.32,2.658l2.868.391C9.325,3.071,9.508,3.135,9.508,3.3Z" transform="translate(44.975 0)"/></g><text class="d" transform="translate(76.217 45.032)"><tspan x="0" y="0">1.3 km</tspan></text></g></g><g class="m" transform="matrix(1, 0, 0, 1, -158, 516.35)"><rect class="g" width="152" height="172" rx="12" transform="translate(352 83.65)"/></g><g transform="translate(178)"><path class="h" d="M0,0H152a0,0,0,0,1,0,0V52a8,8,0,0,1-8,8H8a8,8,0,0,1-8-8V0A0,0,0,0,1,0,0Z" transform="translate(16 712)"/><g transform="translate(15 712)"><text class="c" transform="translate(15.4 20.289)"><tspan x="0" y="0">Fish’n Go</tspan></text><text class="d" transform="translate(15.4 33.554)"><tspan x="0" y="0">by Jammie dodo</tspan></text><g transform="translate(15.4 37.761)"><path class="e" d="M9.508,3.3a.393.393,0,0,1-.149.257l-2.074,1.9.491,2.68a.674.674,0,0,1,.006.107c0,.139-.069.268-.234.268a.487.487,0,0,1-.229-.064L4.754,7.176,2.188,8.441a.506.506,0,0,1-.229.064.24.24,0,0,1-.24-.268.683.683,0,0,1,.011-.107l.491-2.68-2.08-1.9A.409.409,0,0,1,0,3.3c0-.161.177-.225.32-.247l2.868-.391L4.474.22A.35.35,0,0,1,4.754,0a.35.35,0,0,1,.28.22L6.32,2.658l2.868.391C9.325,3.071,9.508,3.135,9.508,3.3Z" transform="translate(0 0.005)"/><path class="e" d="M9.508,3.3a.393.393,0,0,1-.149.257l-2.074,1.9.491,2.68a.674.674,0,0,1,.006.107c0,.139-.069.268-.234.268a.487.487,0,0,1-.229-.064L4.754,7.176,2.188,8.441a.506.506,0,0,1-.229.064.24.24,0,0,1-.24-.268.683.683,0,0,1,.011-.107l.491-2.68-2.08-1.9A.409.409,0,0,1,0,3.3c0-.161.177-.225.32-.247l2.868-.391L4.474.22A.35.35,0,0,1,4.754,0a.35.35,0,0,1,.28.22L6.32,2.658l2.868.391C9.325,3.071,9.508,3.135,9.508,3.3Z" transform="translate(11.244 0.005)"/><path class="e" d="M9.508,3.3a.393.393,0,0,1-.149.257l-2.074,1.9.491,2.68a.674.674,0,0,1,.006.107c0,.139-.069.268-.234.268a.487.487,0,0,1-.229-.064L4.754,7.176,2.188,8.441a.506.506,0,0,1-.229.064.24.24,0,0,1-.24-.268.683.683,0,0,1,.011-.107l.491-2.68-2.08-1.9A.409.409,0,0,1,0,3.3c0-.161.177-.225.32-.247l2.868-.391L4.474.22A.35.35,0,0,1,4.754,0a.35.35,0,0,1,.28.22L6.32,2.658l2.868.391C9.325,3.071,9.508,3.135,9.508,3.3Z" transform="translate(22.487 0.005)"/><path class="e" d="M9.508,3.3a.393.393,0,0,1-.149.257l-2.074,1.9.491,2.68a.674.674,0,0,1,.006.107c0,.139-.069.268-.234.268a.487.487,0,0,1-.229-.064L4.754,7.176,2.188,8.441a.506.506,0,0,1-.229.064.24.24,0,0,1-.24-.268.683.683,0,0,1,.011-.107l.491-2.68-2.08-1.9A.409.409,0,0,1,0,3.3c0-.161.177-.225.32-.247l2.868-.391L4.474.22A.35.35,0,0,1,4.754,0a.35.35,0,0,1,.28.22L6.32,2.658l2.868.391C9.325,3.071,9.508,3.135,9.508,3.3Z" transform="translate(33.731 0.005)"/><path class="e" d="M9.508,3.3a.393.393,0,0,1-.149.257l-2.074,1.9.491,2.68a.674.674,0,0,1,.006.107c0,.139-.069.268-.234.268a.487.487,0,0,1-.229-.064L4.754,7.176,2.188,8.441a.506.506,0,0,1-.229.064.24.24,0,0,1-.24-.268.683.683,0,0,1,.011-.107l.491-2.68-2.08-1.9A.409.409,0,0,1,0,3.3c0-.161.177-.225.32-.247l2.868-.391L4.474.22A.35.35,0,0,1,4.754,0a.35.35,0,0,1,.28.22L6.32,2.658l2.868.391C9.325,3.071,9.508,3.135,9.508,3.3Z" transform="translate(44.731 0.005)"/></g><text class="d" transform="translate(76.217 45.032)"><tspan x="0" y="0">2 km</tspan></text></g></g><g class="l" transform="matrix(1, 0, 0, 1, -158, 516.35)"><rect class="i" width="152" height="172" rx="12" transform="translate(516 83.65)"/></g><g transform="translate(342)"><path class="h" d="M0,0H152a0,0,0,0,1,0,0V52a8,8,0,0,1-8,8H8a8,8,0,0,1-8-8V0A0,0,0,0,1,0,0Z" transform="translate(16 712)"/></g><g class="k" transform="matrix(1, 0, 0, 1, -158, 516.35)"><rect class="j" width="152" height="172" rx="12" transform="translate(24 83.65)"/></g><g transform="translate(-150)"><path class="h" d="M0,0H152a0,0,0,0,1,0,0V52a8,8,0,0,1-8,8H8a8,8,0,0,1-8-8V0A0,0,0,0,1,0,0Z" transform="translate(16 712)"/></g></g></svg>